<?xml version="1.0" encoding="utf-8" ?>
<svg baseProfile="tiny" height="100%" version="1.2" width="100%" xmlns="http://www.w3.org/2000/svg" xmlns:ev="http://www.w3.org/2001/xml-events" xmlns:xlink="http://www.w3.org/1999/xlink"><defs /><rect fill="white" height="100%" width="100%" x="0" y="0" /><text fill="black" font-size="20px" x="15" y="25">7</text><text fill="black" font-size="20px" x="55" y="25">1</text><text fill="black" font-size="20px" x="95" y="25">5</text><text fill="black" font-size="20px" x="135" y="25">3</text><text fill="black" font-size="20px" x="175" y="25">6</text><text fill="black" font-size="20px" x="215" y="25">2</text><text fill="black" font-size="20px" x="255" y="25">9</text><text fill="black" font-size="20px" x="295" y="25">8</text><text fill="black" font-size="20px" x="335" y="25">4</text><text fill="black" font-size="20px" x="15" y="65">6</text><text fill="black" font-size="20px" x="55" y="65">3</text><text fill="black" font-size="20px" x="95" y="65">2</text><text fill="black" font-size="20px" x="135" y="65">8</text><text fill="black" font-size="20px" x="175" y="65">4</text><text fill="black" font-size="20px" x="215" y="65">9</text><text fill="black" font-size="20px" x="255" y="65">5</text><text fill="black" font-size="20px" x="295" y="65">1</text><text fill="black" font-size="20px" x="335" y="65">7</text><text fill="black" font-size="20px" x="15" y="105">4</text><text fill="black" font-size="20px" x="55" y="105">8</text><text fill="black" font-size="20px" x="95" y="105">9</text><text fill="black" font-size="20px" x="135" y="105">1</text><text fill="black" font-size="20px" x="175" y="105">7</text><text fill="black" font-size="20px" x="215" y="105">5</text><text fill="black" font-size="20px" x="255" y="105">2</text><text fill="black" font-size="20px" x="295" y="105">3</text><text fill="black" font-size="20px" x="335" y="105">6</text><text fill="black" font-size="20px" x="15" y="145">5</text><text fill="black" font-size="20px" x="55" y="145">7</text><text fill="black" font-size="20px" x="95" y="145">8</text><text fill="black" font-size="20px" x="135" y="145">6</text><text fill="black" font-size="20px" x="175" y="145">2</text><text fill="black" font-size="20px" x="215" y="145">1</text><text fill="black" font-size="20px" x="255" y="145">3</text><text fill="black" font-size="20px" x="295" y="145">4</text><text fill="black" font-size="20px" x="335" y="145">9</text><text fill="black" font-size="20px" x="15" y="185">9</text><text fill="black" font-size="20px" x="55" y="185">4</text><text fill="black" font-size="20px" x="95" y="185">3</text><text fill="black" font-size="20px" x="135" y="185">7</text><text fill="black" font-size="20px" x="175" y="185">5</text><text fill="black" font-size="20px" x="215" y="185">8</text><text fill="black" font-size="20px" x="255" y="185">1</text><text fill="black" font-size="20px" x="295" y="185">6</text><text fill="black" font-size="20px" x="335" y="185">2</text><text fill="black" font-size="20px" x="15" y="225">2</text><text fill="black" font-size="20px" x="55" y="225">6</text><text fill="black" font-size="20px" x="95" y="225">1</text><text fill="black" font-size="20px" x="135" y="225">4</text><text fill="black" font-size="20px" x="175" y="225">9</text><text fill="black" font-size="20px" x="215" y="225">3</text><text fill="black" font-size="20px" x="255" y="225">8</text><text fill="black" font-size="20px" x="295" y="225">7</text><text fill="black" font-size="20px" x="335" y="225">5</text><text fill="black" font-size="20px" x="15" y="265">1</text><text fill="black" font-size="20px" x="55" y="265">2</text><text fill="black" font-size="20px" x="95" y="265">7</text><text fill="black" font-size="20px" x="135" y="265">9</text><text fill="black" font-size="20px" x="175" y="265">3</text><text fill="black" font-size="20px" x="215" y="265">6</text><text fill="black" font-size="20px" x="255" y="265">4</text><text fill="black" font-size="20px" x="295" y="265">5</text><text fill="black" font-size="20px" x="335" y="265">8</text><text fill="black" font-size="20px" x="15" y="305">3</text><text fill="black" font-size="20px" x="55" y="305">9</text><text fill="black" font-size="20px" x="95" y="305">6</text><text fill="black" font-size="20px" x="135" y="305">5</text><text fill="black" font-size="20px" x="175" y="305">8</text><text fill="black" font-size="20px" x="215" y="305">4</text><text fill="black" font-size="20px" x="255" y="305">7</text><text fill="black" font-size="20px" x="295" y="305">2</text><text fill="black" font-size="20px" x="335" y="305">1</text><text fill="black" font-size="20px" x="15" y="345">8</text><text fill="black" font-size="20px" x="55" y="345">5</text><text fill="black" font-size="20px" x="95" y="345">4</text><text fill="black" font-size="20px" x="135" y="345">2</text><text fill="black" font-size="20px" x="175" y="345">1</text><text fill="black" font-size="20px" x="215" y="345">7</text><text fill="black" font-size="20px" x="255" y="345">6</text><text fill="black" font-size="20px" x="295" y="345">9</text><text fill="black" font-size="20px" x="335" y="345">3</text></svg>